<svg width="24" height="29" viewBox="0 0 24 29" fill="none" xmlns="http://www.w3.org/2000/svg">
<path d="M12.8261 7.29912L11.042 6.26914L16.7569 2.96989L20.8794 5.34983C22.4036 6.22981 21.8889 7.40693 19.3353 8.88119L15.4429 11.1283C12.8893 12.6025 10.8503 12.8996 9.32601 12.0197L2.3455 7.98977C0.821222 7.10979 1.33593 5.93266 3.8896 4.45841L7.78191 2.21135C10.3356 0.737089 12.3746 0.439952 13.8988 1.31993L14.9555 1.92992L10.8469 4.30181L9.49584 3.52183C9.40346 3.4685 9.26084 3.4575 9.06799 3.48884C8.89574 3.50828 8.72725 3.56555 8.56248 3.66068L6.61632 4.78421C6.45158 4.87932 6.34205 4.98254 6.28777 5.09388C6.2541 5.19332 6.28344 5.26971 6.37582 5.32304L13.9279 9.68294C14.0203 9.73627 14.1526 9.75321 14.3249 9.73376C14.5177 9.70243 14.6965 9.6392 14.8613 9.54409L16.8074 8.42056C16.9722 8.32544 17.0714 8.22816 17.1051 8.12872C17.1594 8.01739 17.1403 7.93505 17.048 7.88172L14.4324 6.37176L12.8261 7.29912Z" fill="black"/>
<path d="M5.83849 19.4704L5.83843 17.4104L11.5531 20.71L11.5533 25.4701C11.5533 27.2302 10.2766 27.373 7.72296 25.8986L3.8308 23.6513C1.27723 22.1769 0.000396677 20.5596 0.000340646 18.7996L8.40471e-05 10.7393C2.80157e-05 8.97927 1.2768 8.83646 3.83038 10.3109L7.72254 12.5582C10.2761 14.0326 11.5529 15.6498 11.553 17.4099L11.553 18.6299L7.44465 16.2578L7.4446 14.6977C7.4446 14.5911 7.38281 14.4621 7.25925 14.3107C7.15629 14.1713 7.02244 14.054 6.85767 13.9588L4.91159 12.8352C4.74685 12.7401 4.60269 12.6968 4.47913 12.7055C4.37618 12.726 4.32469 12.7897 4.32469 12.8963L4.32497 21.6166C4.32497 21.7232 4.37647 21.8463 4.47943 21.9858C4.60299 22.1371 4.74716 22.2604 4.9119 22.3555L6.85798 23.4791C7.02274 23.5743 7.15659 23.6115 7.25955 23.591C7.3831 23.5823 7.44488 23.5247 7.44488 23.418L7.44478 20.3979L5.83849 19.4704Z" fill="black"/>
<path d="M22.029 14.8024C23.343 14.3598 24 14.709 23.9999 15.8499L23.9998 18.2417C23.9998 20.0562 22.7464 21.6871 20.2398 23.1344L12.4468 27.634L12.4473 14.2936L19.9976 9.93407C22.5043 8.48673 23.7576 8.6703 23.7575 10.4848L23.7575 11.7013C23.7574 12.8009 23.1813 13.8346 22.029 14.8024ZM18.9362 12.5056L16.6924 13.8012L16.6923 17.3683L18.9361 16.0727C19.0979 15.9793 19.2293 15.8622 19.3303 15.7214C19.4516 15.5689 19.5123 15.4376 19.5123 15.3277L19.5124 12.5854C19.5124 12.4754 19.4517 12.4142 19.3304 12.4018C19.2294 12.3776 19.098 12.4123 18.9362 12.5056ZM19.7547 21.0228L19.7548 18.033C19.7548 17.9231 19.6941 17.8618 19.5728 17.8494C19.4718 17.8253 19.3404 17.8599 19.1786 17.9533L16.6922 19.389L16.6921 23.2035L19.1785 21.7678C19.3403 21.6744 19.4717 21.5573 19.5727 21.4165C19.694 21.264 19.7547 21.1327 19.7547 21.0228Z" fill="black"/>
</svg>
