<svg width="120" height="132" viewBox="0 0 120 132" fill="none" xmlns="http://www.w3.org/2000/svg">
<path d="M64.1304 34.2076L55.2099 29.3806L83.7844 13.9186L104.397 25.0723C112.018 29.1963 109.445 34.7128 96.6763 41.622L77.2147 52.1529C64.4464 59.062 54.2514 60.4546 46.63 56.3305L11.7275 37.4443C4.10611 33.3203 6.67966 27.8037 19.448 20.8946L38.9095 10.3637C51.678 3.45457 61.8728 2.06203 69.4942 6.18606L74.7773 9.04477L54.2345 20.1607L47.4792 16.5053C47.0173 16.2554 46.3042 16.2038 45.34 16.3507C44.4787 16.4418 43.6362 16.7102 42.8124 17.156L33.0816 22.4214C32.2579 22.8672 31.7103 23.351 31.4389 23.8727C31.2705 24.3388 31.4172 24.6968 31.8791 24.9467L69.6396 45.3794C70.1015 45.6293 70.7632 45.7087 71.6244 45.6176C72.5887 45.4708 73.4827 45.1744 74.3064 44.7287L84.0372 39.4633C84.8611 39.0175 85.3571 38.5616 85.5255 38.0956C85.7969 37.5738 85.7016 37.1879 85.2398 36.938L72.1621 29.8615L64.1304 34.2076Z" fill="#9CC7DF"/>
<path d="M29.1925 91.2487L29.1921 81.5942L57.7656 97.0579L57.7663 119.366C57.7666 127.615 51.3828 128.284 38.6148 121.374L19.154 110.842C6.38614 103.932 0.00198339 96.3531 0.00170323 88.1046L0.000420236 50.3302C0.000140079 42.0817 6.38402 41.4124 19.1519 48.3222L38.6127 58.8543C51.3807 65.7642 57.7647 73.3434 57.765 81.5919L57.7652 87.3096L37.2233 76.1925L37.223 68.8813C37.223 68.3814 36.9141 67.7768 36.2963 67.0675C35.7814 66.414 35.1122 65.8643 34.2884 65.4185L24.558 60.1524C23.7343 59.7067 23.0135 59.504 22.3957 59.5446C21.8809 59.641 21.6234 59.9391 21.6235 60.4389L21.6248 101.307C21.6249 101.806 21.8823 102.383 22.3971 103.037C23.015 103.746 23.7358 104.324 24.5595 104.769L34.2899 110.035C35.1137 110.481 35.7829 110.656 36.2977 110.56C36.9155 110.519 37.2244 110.249 37.2244 109.749L37.2239 95.5952L29.1925 91.2487Z" fill="#9CC7DF"/>
<path d="M110.144 69.3717C116.714 67.2977 119.999 68.9343 119.999 74.2812L119.998 85.4903C119.998 93.9938 113.731 101.637 101.198 108.42L62.2332 129.507L62.2354 66.9873L99.987 46.5564C112.52 39.7734 118.787 40.6337 118.787 49.1372L118.786 54.8384C118.786 59.992 115.905 64.8365 110.144 69.3717ZM94.6802 58.6081L83.4609 64.68L83.4603 81.3971L94.6797 75.3252C95.4883 74.8876 96.1453 74.3388 96.6507 73.6788C97.2571 72.964 97.5604 72.349 97.5604 71.8336L97.5608 58.9818C97.5608 58.4664 97.2576 58.1796 96.6512 58.1213C96.1459 58.0082 95.4889 58.1705 94.6802 58.6081ZM98.7724 98.5237L98.7728 84.5122C98.7729 83.9969 98.4696 83.7101 97.8632 83.6517C97.3579 83.5387 96.7009 83.701 95.8922 84.1386L83.46 90.8669L83.4594 108.744L95.8916 102.015C96.7003 101.578 97.3573 101.029 97.8626 100.369C98.4691 99.6541 98.7723 99.039 98.7724 98.5237Z" fill="#9CC7DF"/>
</svg>
